<svg xmlns="http://www.w3.org/2000/svg" viewBox="0 0 1024 1024" width="1024" height="1024">
  <defs>
    <linearGradient id="bg" x1="0" y1="0" x2="0" y2="1">
      <stop offset="0" stop-color="#0e1a2b"/>
      <stop offset="1" stop-color="#060c14"/>
    </linearGradient>
    <radialGradient id="glow" cx="0.5" cy="0.43" r="0.6">
      <stop offset="0" stop-color="#274169" stop-opacity="0.6"/>
      <stop offset="1" stop-color="#274169" stop-opacity="0"/>
    </radialGradient>
    <linearGradient id="white" x1="0" y1="0" x2="0" y2="1">
      <stop offset="0" stop-color="#ffffff"/>
      <stop offset="1" stop-color="#e6eef6"/>
    </linearGradient>
    <linearGradient id="navy" x1="0" y1="0" x2="0" y2="1">
      <stop offset="0" stop-color="#1c2f4f"/>
      <stop offset="1" stop-color="#0b1626"/>
    </linearGradient>
    <linearGradient id="spade" x1="0" y1="0" x2="0" y2="1">
      <stop offset="0" stop-color="#243a5e"/>
      <stop offset="1" stop-color="#070c16"/>
    </linearGradient>
    <linearGradient id="gold" x1="0" y1="0" x2="0" y2="1">
      <stop offset="0" stop-color="#f7e29b"/>
      <stop offset="0.5" stop-color="#e6b64b"/>
      <stop offset="1" stop-color="#c1882c"/>
    </linearGradient>
    <path id="spadeShape" d="M0 -100 C 40 -60 100 -30 100 22 C 100 58 70 78 40 66 C 46 88 56 98 72 104 L -72 104 C -56 98 -46 88 -40 66 C -70 78 -100 58 -100 22 C -100 -30 -40 -60 0 -100 Z"/>
  </defs>

  <!-- full-bleed background -->
  <rect width="1024" height="1024" fill="url(#bg)"/>
  <rect width="1024" height="1024" fill="url(#glow)"/>

  <g id="art" transform="translate(512 545) scale(1.1) translate(-512 -545)">
    <!-- soft shadow under the fan -->
    <ellipse cx="512" cy="792" rx="255" ry="44" fill="#000000" opacity="0.35"/>

    <!-- back card (navy, gold-framed) -->
    <g transform="rotate(-16 512 560)">
      <rect x="342" y="302" width="340" height="486" rx="30" fill="url(#navy)" stroke="#e6b64b" stroke-width="7"/>
      <rect x="368" y="328" width="288" height="434" rx="18" fill="none" stroke="#e6b64b" stroke-width="4" opacity="0.7"/>
      <path d="M512 476 l64 69 -64 69 -64 -69 z" fill="#e6b64b" opacity="0.85"/>
    </g>

    <!-- front card (white, bold spade) -->
    <g transform="rotate(10 512 560)">
      <rect x="342" y="302" width="340" height="486" rx="30" fill="url(#white)" stroke="#ccd7e2" stroke-width="3"/>
      <!-- hero spade -->
      <use href="#spadeShape" transform="translate(512 552) scale(1.5)" fill="url(#spade)" stroke="#e6b64b" stroke-width="4"/>
      <!-- corner pips (top-left, bottom-right) -->
      <use href="#spadeShape" transform="translate(392 372) scale(0.24)" fill="#22375a"/>
      <use href="#spadeShape" transform="translate(632 716) rotate(180) scale(0.24)" fill="#22375a"/>
    </g>
  </g>
</svg>
