<svg xmlns="http://www.w3.org/2000/svg" viewBox="0 0 1024 1024" width="1024" height="1024">
  <!-- Option E — "The Durak": fresh-faced fool in a two-point jester hat (no face paint), red nose, big grin -->
  <defs>
    <linearGradient id="bg" x1="0" y1="0" x2="0" y2="1">
      <stop offset="0" stop-color="#0e1a2b"/>
      <stop offset="1" stop-color="#060c14"/>
    </linearGradient>
    <radialGradient id="glow" cx="0.5" cy="0.43" r="0.6">
      <stop offset="0" stop-color="#274169" stop-opacity="0.6"/>
      <stop offset="1" stop-color="#274169" stop-opacity="0"/>
    </radialGradient>
    <linearGradient id="faceE" x1="0" y1="0" x2="0" y2="1">
      <stop offset="0" stop-color="#fff8ee"/>
      <stop offset="1" stop-color="#f2ddc4"/>
    </linearGradient>
    <linearGradient id="hatRedE" x1="0" y1="0" x2="0" y2="1">
      <stop offset="0" stop-color="#e0473d"/>
      <stop offset="1" stop-color="#b02c26"/>
    </linearGradient>
    <linearGradient id="hatNavyE" x1="0" y1="0" x2="0" y2="1">
      <stop offset="0" stop-color="#33568c"/>
      <stop offset="1" stop-color="#1a3057"/>
    </linearGradient>
    <linearGradient id="gold" x1="0" y1="0" x2="0" y2="1">
      <stop offset="0" stop-color="#f7e29b"/>
      <stop offset="0.5" stop-color="#e6b64b"/>
      <stop offset="1" stop-color="#c1882c"/>
    </linearGradient>
    <radialGradient id="noseE" cx="0.35" cy="0.3" r="0.9">
      <stop offset="0" stop-color="#ff867b"/>
      <stop offset="1" stop-color="#c9302a"/>
    </radialGradient>
    <radialGradient id="hairE" cx="0.4" cy="0.35" r="0.9">
      <stop offset="0" stop-color="#ea5a4f"/>
      <stop offset="1" stop-color="#b8302a"/>
    </radialGradient>
  </defs>

  <rect width="1024" height="1024" fill="url(#bg)"/>
  <rect width="1024" height="1024" fill="url(#glow)"/>

  <!-- hair tufts peeking out under the hat -->
  <circle cx="272" cy="520" r="58" fill="url(#hairE)"/>
  <circle cx="752" cy="520" r="58" fill="url(#hairE)"/>

  <!-- face -->
  <circle cx="512" cy="590" r="272" fill="url(#faceE)"/>

  <!-- two-point jester hat -->
  <path d="M 322 392
           C 292 334, 268 262, 286 202
           C 362 262, 452 292, 512 338
           L 512 392 Z"
        fill="url(#hatRedE)"/>
  <path d="M 702 392
           C 732 334, 756 262, 738 202
           C 662 262, 572 292, 512 338
           L 512 392 Z"
        fill="url(#hatNavyE)"/>
  <circle cx="284" cy="196" r="32" fill="url(#gold)"/>
  <circle cx="740" cy="196" r="32" fill="url(#gold)"/>
  <rect x="300" y="382" width="424" height="62" rx="31" fill="url(#gold)"/>

  <!-- eyes -->
  <circle cx="430" cy="556" r="27" fill="#1b2b45"/>
  <circle cx="594" cy="556" r="27" fill="#1b2b45"/>
  <circle cx="439" cy="547" r="9" fill="#ffffff"/>
  <circle cx="603" cy="547" r="9" fill="#ffffff"/>

  <!-- cheeks -->
  <ellipse cx="352" cy="652" rx="42" ry="30" fill="#ffab9e" opacity="0.55"/>
  <ellipse cx="672" cy="652" rx="42" ry="30" fill="#ffab9e" opacity="0.55"/>

  <!-- smile -->
  <path d="M 428 692 Q 512 766 596 692" fill="none" stroke="#c9362f" stroke-width="18" stroke-linecap="round"/>

  <!-- nose -->
  <circle cx="512" cy="628" r="48" fill="url(#noseE)"/>
  <ellipse cx="496" cy="612" rx="14" ry="10" fill="#ffffff" opacity="0.65"/>
</svg>
